<?xml version="1.0" encoding="UTF-8"?>
<svg version="1.1" xmlns="http://www.w3.org/2000/svg" width="120" height="40">
<path d="M0 0 C39.6 0 79.2 0 120 0 C120 13.2 120 26.4 120 40 C80.4 40 40.8 40 0 40 C0 26.8 0 13.6 0 0 Z " fill="#FAFAFA" transform="translate(0,0)"/>
<path d="M0 0 C7 0 7 0 9 1.0625 C10.58495594 4.13335213 9.68036707 6.72186775 9 10 C9.556875 9.175 10.11375 8.35 10.6875 7.5 C13 5 13 5 15.625 4.625 C18 5 18 5 20 6 C20.66 5.67 21.32 5.34 22 5 C24.8005088 4.92752306 27.57553323 4.9072732 30.375 4.9375 C31.14328125 4.94201172 31.9115625 4.94652344 32.703125 4.95117188 C34.14112889 4.95987951 35.57912286 4.97064245 37.01708984 4.98413086 C39.01133638 5.00009072 41.0056896 5 43 5 C47.66666667 5 52.33333333 5 57 5 C57.95024979 8.69541586 57.95024979 11.30458414 57 15 C50 15 43 15 36 15 C35.67 16.32 35.34 17.64 35 19 C33.68 18.67 32.36 18.34 31 18 C31 17.01 31 16.02 31 15 C28.02148438 15.04882812 28.02148438 15.04882812 25.04296875 15.09765625 C23 15 23 15 20 14 C17.99650739 14.31165441 15.99673484 14.64763503 14 15 C10.8125 15.3125 10.8125 15.3125 8 15 C6.125 13 6.125 13 5 11 C4.67 12.32 4.34 13.64 4 15 C2.68 14.67 1.36 14.34 0 14 C0 9.38 0 4.76 0 0 Z " fill="#BBA691" transform="translate(58,8)"/>
<path d="M0 0 C1.32 0.33 2.64 0.66 4 1 C4 2.32 4 3.64 4 5 C5.258125 5 6.51625 5 7.8125 5 C10.20833333 5 12.60416667 5 15 5 C16.08410156 4.97679687 17.16820313 4.95359375 18.28515625 4.9296875 C20.15494141 4.90261719 20.15494141 4.90261719 22.0625 4.875 C23.31160156 4.85179687 24.56070312 4.82859375 25.84765625 4.8046875 C29 5 29 5 31 7 C31.33 6.34 31.66 5.68 32 5 C35.31248187 4.97111854 38.62493167 4.95324201 41.9375 4.9375 C43.35579102 4.92493164 43.35579102 4.92493164 44.80273438 4.91210938 C46.15141602 4.90727539 46.15141602 4.90727539 47.52734375 4.90234375 C48.77632446 4.89448853 48.77632446 4.89448853 50.05053711 4.88647461 C52 5 52 5 53 6 C53.14115161 8.67058851 53.04247107 11.32432238 53 14 C49.75 14.75 49.75 14.75 46 15 C43.5625 13.1875 43.5625 13.1875 42 11 C42 10.34 42 9.68 42 9 C41.34 9 40.68 9 40 9 C40 10.98 40 12.96 40 15 C35.33333333 15 30.66666667 15 26 15 C25.67 16.32 25.34 17.64 25 19 C23.0625 18.6875 23.0625 18.6875 21 18 C20.67 17.01 20.34 16.02 20 15 C17.03 15 14.06 15 11 15 C10.34 13.02 9.68 11.04 9 9 C8.67 10.98 8.34 12.96 8 15 C5.66705225 15.04241723 3.33297433 15.04092937 1 15 C0 14 0 14 -0.09765625 10.83984375 C-0.08025391 8.90818359 -0.08025391 8.90818359 -0.0625 6.9375 C-0.05347656 5.64714844 -0.04445312 4.35679688 -0.03515625 3.02734375 C-0.02355469 2.02832031 -0.01195313 1.02929688 0 0 Z " fill="#BABE9B" transform="translate(1,8)"/>
<path d="M0 0 C7 0 7 0 9 1.0625 C10.55515911 4.07562078 9.51711582 6.72493315 9 10 C9.80579785 12.3715005 9.80579785 12.3715005 11 14 C8.5625 13.625 8.5625 13.625 6 13 C5.67 12.34 5.34 11.68 5 11 C4.67 12.32 4.34 13.64 4 15 C2.68 14.67 1.36 14.34 0 14 C0 9.38 0 4.76 0 0 Z " fill="#B89C80" transform="translate(58,8)"/>
<path d="M0 0 C1.26714844 -0.01417969 2.53429688 -0.02835938 3.83984375 -0.04296875 C7.0625 0.1875 7.0625 0.1875 9.0625 2.1875 C8.6875 5.3125 8.6875 5.3125 8.0625 8.1875 C6.4125 7.8575 4.7625 7.5275 3.0625 7.1875 C3.248125 6.548125 3.43375 5.90875 3.625 5.25 C3.769375 4.569375 3.91375 3.88875 4.0625 3.1875 C3.7325 2.8575 3.4025 2.5275 3.0625 2.1875 C2.0725 2.1875 1.0825 2.1875 0.0625 2.1875 C0.0625 3.1775 0.0625 4.1675 0.0625 5.1875 C-0.5975 5.1875 -1.2575 5.1875 -1.9375 5.1875 C-1.9375 6.1775 -1.9375 7.1675 -1.9375 8.1875 C-3.9175 8.5175 -5.8975 8.8475 -7.9375 9.1875 C-8.03515625 3.03515625 -8.03515625 3.03515625 -7.9375 1.1875 C-6.00408053 -0.74591947 -2.56270879 0.01300867 0 0 Z " fill="#C9CEA1" transform="translate(22.9375,12.8125)"/>
<path d="M0 0 C-0.33 1.65 -0.66 3.3 -1 5 C0.32 5.33 1.64 5.66 3 6 C3.33 4.35 3.66 2.7 4 1 C4.625 2.8125 4.625 2.8125 5 5 C4.01 6.485 4.01 6.485 3 8 C1.68 8 0.36 8 -1 8 C-1.33 9.32 -1.66 10.64 -2 12 C-3.9375 11.6875 -3.9375 11.6875 -6 11 C-6.33 10.01 -6.66 9.02 -7 8 C-8.65 7.67 -10.3 7.34 -12 7 C-12 6.67 -12 6.34 -12 6 C-10.35 6 -8.7 6 -7 6 C-7 5.01 -7 4.02 -7 3 C-6.34 3 -5.68 3 -5 3 C-5.33 2.34 -5.66 1.68 -6 1 C-8.02463255 0.34786708 -8.02463255 0.34786708 -10 0 C-6.30581799 -1.231394 -3.7943739 -0.64432764 0 0 Z " fill="#B4B797" transform="translate(28,15)"/>
<path d="M0 0 C7 0 14 0 21 0 C21 0.99 21 1.98 21 3 C14.07 3 7.14 3 0 3 C0 2.01 0 1.02 0 0 Z " fill="#969696" transform="translate(0,29)"/>
<path d="M0 0 C2.69374642 0.25654728 4.31699635 0.88229413 6.625 2.25 C5.820625 2.724375 5.01625 3.19875 4.1875 3.6875 C1.77746512 5.01900154 1.77746512 5.01900154 0.625 6.25 C1.615 6.25 2.605 6.25 3.625 6.25 C3.625 6.91 3.625 7.57 3.625 8.25 C1.29205225 8.29241723 -1.04202567 8.29092937 -3.375 8.25 C-4.375 7.25 -4.375 7.25 -4.5625 4.8125 C-4.30966228 1.35705114 -3.4712713 0.36539698 0 0 Z " fill="#B79574" transform="translate(73.375,12.75)"/>
<path d="M0 0 C4.95 0 9.9 0 15 0 C14.67 1.32 14.34 2.64 14 4 C8.88208358 4.10662326 4.07071901 3.71167986 -1 3 C-0.67 2.01 -0.34 1.02 0 0 Z " fill="#9E9E9E" transform="translate(74,29)"/>
<path d="M0 0 C2.475 0.99 2.475 0.99 5 2 C4.67 3.98 4.34 5.96 4 8 C3.34 8 2.68 8 2 8 C2.33 9.98 2.66 11.96 3 14 C2.01 14 1.02 14 0 14 C0 9.38 0 4.76 0 0 Z " fill="#B4977A" transform="translate(90,13)"/>
<path d="M0 0 C0.99 0 1.98 0 3 0 C3 4.29 3 8.58 3 13 C2.01 13.33 1.02 13.66 0 14 C0 9.38 0 4.76 0 0 Z " fill="#C0C78D" transform="translate(1,8)"/>
<path d="M0 0 C1.65 0 3.3 0 5 0 C5 0.66 5 1.32 5 2 C5.66 2 6.32 2 7 2 C7 1.34 7 0.68 7 0 C9.64 0 12.28 0 15 0 C15 0.99 15 1.98 15 3 C10.05 3 5.1 3 0 3 C0 2.01 0 1.02 0 0 Z " fill="#888888" transform="translate(23,29)"/>
<path d="M0 0 C1.98 0 3.96 0 6 0 C6 2.64 6 5.28 6 8 C5.34 8 4.68 8 4 8 C4 6.35 4 4.7 4 3 C2.02 3.66 0.04 4.32 -2 5 C-1.34 3.35 -0.68 1.7 0 0 Z " fill="#B5977A" transform="translate(82,13)"/>
<path d="M0 0 C1.32 0 2.64 0 4 0 C4 2.64 4 5.28 4 8 C3.01 8 2.02 8 1 8 C1 7.34 1 6.68 1 6 C0.34 6 -0.32 6 -1 6 C-1 5.01 -1 4.02 -1 3 C-0.34 3 0.32 3 1 3 C0.67 2.01 0.34 1.02 0 0 Z " fill="#CBD0A4" transform="translate(49,13)"/>
<path d="M0 0 C3.63 0 7.26 0 11 0 C11.33 0.99 11.66 1.98 12 3 C10.00045254 3.04254356 7.99958364 3.04080783 6 3 C5.67 2.67 5.34 2.34 5 2 C5 2.33 5 2.66 5 3 C3.35 3 1.7 3 0 3 C0 2.01 0 1.02 0 0 Z " fill="#898989" transform="translate(56,29)"/>
<path d="M0 0 C2.97 0.495 2.97 0.495 6 1 C5.01 2.485 5.01 2.485 4 4 C1.375 4.1875 1.375 4.1875 -1 4 C-1.33 3.34 -1.66 2.68 -2 2 C-1.34 2 -0.68 2 0 2 C0 1.34 0 0.68 0 0 Z " fill="#BB9F84" transform="translate(74,13)"/>
<path d="M0 0 C1.32 0.33 2.64 0.66 4 1 C3.34 2.98 2.68 4.96 2 7 C1.34 7 0.68 7 0 7 C0 4.69 0 2.38 0 0 Z " fill="#BEC58C" transform="translate(37,14)"/>
</svg>
